<?xml version="1.0" standalone="no"?>
<!DOCTYPE svg PUBLIC "-//W3C//DTD SVG 20010904//EN"
 "http://www.w3.org/TR/2001/REC-SVG-20010904/DTD/svg10.dtd">
<svg version="1.0" xmlns="http://www.w3.org/2000/svg"
 width="523.000000pt" height="441.000000pt" viewBox="0 0 523.000000 441.000000"
 preserveAspectRatio="xMidYMid meet">

<g transform="translate(0.000000,441.000000) scale(0.100000,-0.100000)"
fill="#000000" stroke="none">
<path d="M0 2205 l0 -2205 2615 0 2615 0 0 2205 0 2205 -2615 0 -2615 0 0
-2205z m5100 0 l0 -2035 -2470 0 -2470 0 0 2035 0 2035 2470 0 2470 0 0 -2035z"/>
<path d="M180 2205 l0 -2015 2450 0 2450 0 0 2015 0 2015 -2450 0 -2450 0 0
-2015z m4850 0 l0 -1965 -2400 0 -2400 0 0 1965 0 1965 2400 0 2400 0 0 -1965z"/>
<path d="M240 2205 l0 -1955 2390 0 2390 0 0 1955 0 1955 -2390 0 -2390 0 0
-1955z m2445 1475 c145 -8 196 -15 265 -36 190 -58 280 -170 299 -373 15 -163
-19 -304 -95 -397 -46 -56 -142 -117 -231 -146 -82 -26 -96 -48 -30 -48 145
-2 336 -92 406 -193 57 -83 83 -169 88 -297 6 -132 -5 -199 -47 -287 -56 -119
-159 -187 -340 -225 -97 -20 -141 -22 -584 -25 -340 -3 -476 -1 -471 6 3 6 15
11 27 11 35 0 94 70 115 135 17 56 18 112 18 860 0 729 -2 805 -17 856 -21 67
-57 123 -82 127 -15 3 -18 -1 -13 -17 7 -28 -28 -71 -59 -71 -46 0 -80 59 -55
98 4 7 21 17 37 22 40 12 551 12 769 0z m770 -2442 c39 -91 76 -162 91 -175
l25 -23 -73 1 c-40 1 -66 3 -56 6 23 6 29 28 17 60 -14 39 -25 43 -106 43 -81
0 -103 -13 -103 -61 0 -21 6 -32 23 -39 17 -7 7 -9 -41 -9 l-63 -1 25 23 c24
20 146 283 146 313 0 7 7 20 17 29 20 21 14 31 98 -167z m-2500 158 c64 -27
71 -100 12 -136 l-30 -19 26 -6 c32 -8 77 -59 77 -86 0 -35 -28 -76 -64 -93
-26 -12 -63 -16 -153 -16 -111 1 -116 2 -85 15 l33 14 -3 158 c-3 157 -3 157
-28 170 -22 11 -12 13 78 13 66 0 115 -5 137 -14z m555 10 c0 -1 -5 -17 -11
-33 l-10 -31 -24 24 c-17 17 -35 24 -64 24 -67 0 -71 -4 -71 -81 l0 -69 51 0
c28 0 60 5 71 11 19 10 20 9 13 -7 -4 -11 -9 -26 -12 -36 -4 -15 -8 -15 -39
-2 -18 8 -45 14 -59 14 -24 0 -25 -1 -25 -74 0 -83 2 -86 76 -86 49 0 76 11
112 44 l23 21 -11 -30 c-21 -55 -22 -55 -174 -54 -103 0 -134 3 -116 10 13 6
28 15 32 22 10 15 10 288 0 303 -4 6 -16 16 -27 22 -16 9 11 11 123 12 78 0
142 -2 142 -4z m332 -12 c-21 -15 -22 -21 -22 -168 0 -171 -2 -166 70 -166 48
0 88 15 118 43 l23 22 -11 -30 c-21 -55 -22 -55 -174 -54 -107 0 -134 3 -113
11 15 5 29 19 32 31 3 12 4 85 3 162 -3 137 -3 140 -28 152 -22 11 -17 13 50
13 70 0 73 -1 52 -16z m498 9 c-35 -12 -40 -35 -40 -179 0 -167 1 -169 90
-162 49 3 65 9 90 33 33 31 39 21 15 -25 l-16 -30 -142 0 c-132 1 -140 2 -114
16 l27 15 0 154 c0 148 -1 154 -22 169 -21 15 -18 16 52 15 41 0 68 -3 60 -6z
m620 -5 c0 -7 -3 -23 -6 -34 -6 -21 -6 -21 -30 3 -20 20 -32 24 -77 21 l-52
-3 -3 -72 -3 -73 51 0 c28 0 60 5 71 10 23 13 24 8 4 -30 -14 -28 -16 -28 -42
-14 -16 7 -41 14 -56 14 l-28 0 3 -77 3 -78 40 -3 c59 -5 104 7 131 33 20 20
24 21 24 7 0 -10 -7 -28 -16 -40 -14 -21 -21 -22 -157 -21 -78 0 -135 3 -127
6 47 17 50 29 50 177 0 78 -4 146 -8 152 -4 6 -16 16 -27 22 -16 9 10 11 118
12 103 0 137 -3 137 -12z m1024 -2 c43 -18 66 -51 66 -97 0 -71 -65 -119 -160
-119 l-50 0 0 -47 c0 -58 8 -71 46 -83 22 -6 8 -8 -56 -8 -68 -1 -81 2 -62 10
21 11 22 15 22 169 0 152 -1 158 -22 173 -21 15 -16 16 80 16 65 0 115 -5 136
-14z m501 -2 c20 -9 40 -30 51 -52 15 -32 15 -41 3 -77 -18 -53 -81 -87 -152
-83 l-47 3 0 -56 c0 -58 8 -73 45 -82 11 -2 -18 -5 -65 -5 -47 0 -78 2 -70 5
35 12 40 35 40 177 0 78 -4 146 -8 152 -4 6 -16 16 -27 22 -34 20 189 16 230
-4z m-3278 -651 c-3 -10 -5 -2 -5 17 0 19 2 27 5 18 2 -10 2 -26 0 -35z m90 0
c-3 -10 -5 -2 -5 17 0 19 2 27 5 18 2 -10 2 -26 0 -35z m1730 0 c-3 -10 -5 -2
-5 17 0 19 2 27 5 18 2 -10 2 -26 0 -35z m140 0 c-3 -10 -5 -2 -5 17 0 19 2
27 5 18 2 -10 2 -26 0 -35z m470 0 c-3 -10 -5 -2 -5 17 0 19 2 27 5 18 2 -10
2 -26 0 -35z m360 0 c-3 -10 -5 -2 -5 17 0 19 2 27 5 18 2 -10 2 -26 0 -35z"/>
<path d="M2405 3648 c-3 -7 -4 -224 -3 -483 l3 -470 124 -3 c106 -2 134 1 190
19 156 52 231 203 231 463 0 240 -58 373 -193 442 -75 39 -341 62 -352 32z"/>
<path d="M2402 2168 l3 -493 175 3 c139 3 189 8 242 24 120 35 184 100 229
233 21 63 24 86 23 235 0 144 -3 173 -22 224 -44 118 -89 174 -175 220 -69 36
-138 46 -319 46 l-158 0 2 -492z"/>
<path d="M3319 1268 c-19 -45 -35 -85 -37 -90 -2 -4 30 -8 72 -8 42 0 76 2 76
5 0 9 -63 159 -70 168 -3 4 -22 -30 -41 -75z"/>
<path d="M827 1383 c-4 -3 -7 -35 -7 -70 l0 -63 54 0 c45 0 58 4 70 22 22 31
20 60 -5 92 -16 21 -29 26 -63 26 -23 0 -46 -3 -49 -7z"/>
<path d="M820 1157 c0 -43 5 -78 12 -85 13 -13 106 -16 125 -4 22 14 32 58 22
97 -12 43 -53 65 -119 65 l-40 0 0 -73z"/>
<path d="M3852 1378 c-7 -7 -12 -44 -12 -95 l0 -83 55 0 c47 0 60 4 82 26 22
22 25 32 20 72 -6 59 -41 92 -96 92 -20 0 -42 -5 -49 -12z"/>
<path d="M4347 1383 c-4 -3 -7 -46 -7 -95 l0 -88 46 0 c45 0 82 13 96 34 4 6
8 32 8 58 0 64 -32 98 -94 98 -23 0 -46 -3 -49 -7z"/>
</g>
</svg>
